<svg width="637" height="145" viewBox="0 0 637 145" fill="none" xmlns="http://www.w3.org/2000/svg">
<path opacity="0.03" d="M34.6 30V58.4H80.4V84.8H34.6V115.6H86.4V143H0.400001V2.6H86.4V30H34.6ZM180.203 143L151.003 90H142.803V143H108.603V2.6H166.003C177.07 2.6 186.47 4.53333 194.203 8.39999C202.07 12.2667 207.936 17.6 211.803 24.4C215.67 31.0667 217.603 38.5333 217.603 46.8C217.603 56.1333 214.936 64.4667 209.603 71.8C204.403 79.1333 196.67 84.3333 186.403 87.4L218.803 143H180.203ZM142.803 65.8H164.003C170.27 65.8 174.936 64.2667 178.003 61.2C181.203 58.1333 182.803 53.8 182.803 48.2C182.803 42.8667 181.203 38.6667 178.003 35.6C174.936 32.5333 170.27 31 164.003 31H142.803V65.8ZM310.672 143L281.472 90H273.272V143H239.072V2.6H296.472C307.539 2.6 316.939 4.53333 324.672 8.39999C332.539 12.2667 338.405 17.6 342.272 24.4C346.139 31.0667 348.072 38.5333 348.072 46.8C348.072 56.1333 345.405 64.4667 340.072 71.8C334.872 79.1333 327.139 84.3333 316.872 87.4L349.272 143H310.672ZM273.272 65.8H294.472C300.739 65.8 305.405 64.2667 308.472 61.2C311.672 58.1333 313.272 53.8 313.272 48.2C313.272 42.8667 311.672 38.6667 308.472 35.6C305.405 32.5333 300.739 31 294.472 31H273.272V65.8ZM435.941 144.4C422.741 144.4 410.607 141.333 399.541 135.2C388.607 129.067 379.874 120.533 373.341 109.6C366.941 98.5333 363.741 86.1333 363.741 72.4C363.741 58.6667 366.941 46.3333 373.341 35.4C379.874 24.4667 388.607 15.9333 399.541 9.8C410.607 3.66666 422.741 0.599998 435.941 0.599998C449.141 0.599998 461.207 3.66666 472.141 9.8C483.207 15.9333 491.874 24.4667 498.141 35.4C504.541 46.3333 507.741 58.6667 507.741 72.4C507.741 86.1333 504.541 98.5333 498.141 109.6C491.741 120.533 483.074 129.067 472.141 135.2C461.207 141.333 449.141 144.4 435.941 144.4ZM435.941 113.2C447.141 113.2 456.074 109.467 462.741 102C469.541 94.5333 472.941 84.6667 472.941 72.4C472.941 60 469.541 50.1333 462.741 42.8C456.074 35.3333 447.141 31.6 435.941 31.6C424.607 31.6 415.541 35.2667 408.741 42.6C402.074 49.9333 398.741 59.8667 398.741 72.4C398.741 84.8 402.074 94.7333 408.741 102.2C415.541 109.533 424.607 113.2 435.941 113.2ZM598.367 143L569.167 90H560.967V143H526.767V2.6H584.167C595.234 2.6 604.634 4.53333 612.367 8.39999C620.234 12.2667 626.101 17.6 629.967 24.4C633.834 31.0667 635.767 38.5333 635.767 46.8C635.767 56.1333 633.101 64.4667 627.767 71.8C622.567 79.1333 614.834 84.3333 604.567 87.4L636.967 143H598.367ZM560.967 65.8H582.167C588.434 65.8 593.101 64.2667 596.167 61.2C599.367 58.1333 600.967 53.8 600.967 48.2C600.967 42.8667 599.367 38.6667 596.167 35.6C593.101 32.5333 588.434 31 582.167 31H560.967V65.8Z" fill="white"/>
</svg>
