<svg xmlns="http://www.w3.org/2000/svg" width="617" height="150" fill="none" viewBox="0 0 617 150"><path fill="#fff" d="M96.8 123.2H44.4L36 148H0.2L51 7.6H90.6L141.4 148H105.2L96.8 123.2ZM88 96.8L70.6 45.4L53.4 96.8H88ZM191.061 52.2C194.261 47 198.861 42.8 204.861 39.6C210.861 36.4 217.728 34.8 225.461 34.8C234.661 34.8 242.994 37.1333 250.461 41.8C257.928 46.4667 263.794 53.1333 268.061 61.8C272.461 70.4667 274.661 80.5333 274.661 92C274.661 103.467 272.461 113.6 268.061 122.4C263.794 131.067 257.928 137.8 250.461 142.6C242.994 147.267 234.661 149.6 225.461 149.6C217.594 149.6 210.728 148.067 204.861 145C198.994 141.8 194.394 137.6 191.061 132.4V148H156.861V-1.90735e-06H191.061V52.2ZM239.861 92C239.861 83.4667 237.461 76.8 232.661 72C227.994 67.0667 222.194 64.6 215.261 64.6C208.461 64.6 202.661 67.0667 197.861 72C193.194 76.9333 190.861 83.6667 190.861 92.2C190.861 100.733 193.194 107.467 197.861 112.4C202.661 117.333 208.461 119.8 215.261 119.8C222.061 119.8 227.861 117.333 232.661 112.4C237.461 107.333 239.861 100.533 239.861 92ZM343.403 149.6C332.47 149.6 322.603 147.267 313.803 142.6C305.136 137.933 298.27 131.267 293.203 122.6C288.27 113.933 285.803 103.8 285.803 92.2C285.803 80.7333 288.336 70.6667 293.403 62C298.47 53.2 305.403 46.4667 314.203 41.8C323.003 37.1333 332.87 34.8 343.803 34.8C354.736 34.8 364.603 37.1333 373.403 41.8C382.203 46.4667 389.136 53.2 394.203 62C399.27 70.6667 401.803 80.7333 401.803 92.2C401.803 103.667 399.203 113.8 394.003 122.6C388.936 131.267 381.936 137.933 373.003 142.6C364.203 147.267 354.336 149.6 343.403 149.6ZM343.403 120C349.936 120 355.47 117.6 360.003 112.8C364.67 108 367.003 101.133 367.003 92.2C367.003 83.2667 364.736 76.4 360.203 71.6C355.803 66.8 350.336 64.4 343.803 64.4C337.136 64.4 331.603 66.8 327.203 71.6C322.803 76.2667 320.603 83.1333 320.603 92.2C320.603 101.133 322.736 108 327.003 112.8C331.403 117.6 336.87 120 343.403 120ZM530.147 36.4V148H495.947V132.8C492.48 137.733 487.747 141.733 481.747 144.8C475.88 147.733 469.347 149.2 462.147 149.2C453.614 149.2 446.08 147.333 439.547 143.6C433.014 139.733 427.947 134.2 424.347 127C420.747 119.8 418.947 111.333 418.947 101.6V36.4H452.947V97C452.947 104.467 454.88 110.267 458.747 114.4C462.614 118.533 467.814 120.6 474.347 120.6C481.014 120.6 486.28 118.533 490.147 114.4C494.014 110.267 495.947 104.467 495.947 97V36.4H530.147ZM616.913 119V148H599.513C587.113 148 577.446 145 570.513 139C563.579 132.867 560.113 122.933 560.113 109.2V64.8H546.513V36.4H560.113V9.2H594.313V36.4H616.713V64.8H594.313V109.6C594.313 112.933 595.113 115.333 596.713 116.8C598.313 118.267 600.979 119 604.713 119H616.913Z" opacity=".03"/></svg>