<svg xmlns="http://www.w3.org/2000/svg" width="814" height="215" fill="none" viewBox="0 0 814 215"><path fill="#fff" d="M107.4 65.8C107.4 73.9333 105.533 81.4 101.8 88.2C98.0667 94.8667 92.3333 100.267 84.6 104.4C76.8667 108.533 67.2667 110.6 55.8 110.6H34.6V161H0.400001V20.6H55.8C67 20.6 76.4667 22.5333 84.2 26.4C91.9333 30.2667 97.7333 35.6 101.6 42.4C105.467 49.2 107.4 57 107.4 65.8ZM53.2 83.4C59.7333 83.4 64.6 81.8667 67.8 78.8C71 75.7333 72.6 71.4 72.6 65.8C72.6 60.2 71 55.8667 67.8 52.8C64.6 49.7333 59.7333 48.2 53.2 48.2H34.6V83.4H53.2ZM159.405 68C163.405 61.8667 168.405 57.0667 174.405 53.6C180.405 50 187.071 48.2 194.405 48.2V84.4H185.005C176.471 84.4 170.071 86.2667 165.805 90C161.538 93.6 159.405 100 159.405 109.2V161H125.205V49.4H159.405V68ZM261.552 162.6C250.618 162.6 240.752 160.267 231.952 155.6C223.285 150.933 216.418 144.267 211.352 135.6C206.418 126.933 203.952 116.8 203.952 105.2C203.952 93.7333 206.485 83.6667 211.552 75C216.618 66.2 223.552 59.4667 232.352 54.8C241.152 50.1333 251.018 47.8 261.952 47.8C272.885 47.8 282.752 50.1333 291.552 54.8C300.352 59.4667 307.285 66.2 312.352 75C317.418 83.6667 319.952 93.7333 319.952 105.2C319.952 116.667 317.352 126.8 312.152 135.6C307.085 144.267 300.085 150.933 291.152 155.6C282.352 160.267 272.485 162.6 261.552 162.6ZM261.552 133C268.085 133 273.618 130.6 278.152 125.8C282.818 121 285.152 114.133 285.152 105.2C285.152 96.2667 282.885 89.4 278.352 84.6C273.952 79.8 268.485 77.4 261.952 77.4C255.285 77.4 249.752 79.8 245.352 84.6C240.952 89.2667 238.752 96.1333 238.752 105.2C238.752 114.133 240.885 121 245.152 125.8C249.552 130.6 255.018 133 261.552 133ZM355.095 37.8C349.095 37.8 344.162 36.0667 340.295 32.6C336.562 29 334.695 24.6 334.695 19.4C334.695 14.0667 336.562 9.66666 340.295 6.19999C344.162 2.59999 349.095 0.799988 355.095 0.799988C360.962 0.799988 365.762 2.59999 369.495 6.19999C373.362 9.66666 375.295 14.0667 375.295 19.4C375.295 24.6 373.362 29 369.495 32.6C365.762 36.0667 360.962 37.8 355.095 37.8ZM372.295 175.4C372.295 189.133 368.829 199 361.895 205C354.962 211.133 345.295 214.2 332.895 214.2H319.495V185.2H327.695C331.429 185.2 334.095 184.467 335.695 183C337.295 181.533 338.095 179.133 338.095 175.8V49.4H372.295V175.4ZM502.084 103.4C502.084 106.6 501.884 109.933 501.484 113.4H424.084C424.618 120.333 426.818 125.667 430.684 129.4C434.684 133 439.551 134.8 445.284 134.8C453.818 134.8 459.751 131.2 463.084 124H499.484C497.618 131.333 494.218 137.933 489.284 143.8C484.484 149.667 478.418 154.267 471.084 157.6C463.751 160.933 455.551 162.6 446.484 162.6C435.551 162.6 425.818 160.267 417.284 155.6C408.751 150.933 402.084 144.267 397.284 135.6C392.484 126.933 390.084 116.8 390.084 105.2C390.084 93.6 392.418 83.4667 397.084 74.8C401.884 66.1333 408.551 59.4667 417.084 54.8C425.618 50.1333 435.418 47.8 446.484 47.8C457.284 47.8 466.884 50.0667 475.284 54.6C483.684 59.1333 490.218 65.6 494.884 74C499.684 82.4 502.084 92.2 502.084 103.4ZM467.084 94.4C467.084 88.5333 465.084 83.8667 461.084 80.4C457.084 76.9333 452.084 75.2 446.084 75.2C440.351 75.2 435.484 76.8667 431.484 80.2C427.618 83.5333 425.218 88.2667 424.284 94.4H467.084ZM513.327 105.2C513.327 93.6 515.66 83.4667 520.327 74.8C525.127 66.1333 531.727 59.4667 540.127 54.8C548.66 50.1333 558.393 47.8 569.327 47.8C583.327 47.8 594.993 51.4667 604.327 58.8C613.793 66.1333 619.993 76.4667 622.927 89.8H586.527C583.46 81.2667 577.527 77 568.727 77C562.46 77 557.46 79.4667 553.727 84.4C549.993 89.2 548.127 96.1333 548.127 105.2C548.127 114.267 549.993 121.267 553.727 126.2C557.46 131 562.46 133.4 568.727 133.4C577.527 133.4 583.46 129.133 586.527 120.6H622.927C619.993 133.667 613.793 143.933 604.327 151.4C594.86 158.867 583.193 162.6 569.327 162.6C558.393 162.6 548.66 160.267 540.127 155.6C531.727 150.933 525.127 144.267 520.327 135.6C515.66 126.933 513.327 116.8 513.327 105.2ZM703.42 132V161H686.02C673.62 161 663.954 158 657.02 152C650.087 145.867 646.62 135.933 646.62 122.2V77.8H633.02V49.4H646.62V22.2H680.82V49.4H703.22V77.8H680.82V122.6C680.82 125.933 681.62 128.333 683.22 129.8C684.82 131.267 687.487 132 691.22 132H703.42ZM767.87 162.6C758.137 162.6 749.47 160.933 741.87 157.6C734.27 154.267 728.27 149.733 723.87 144C719.47 138.133 717.004 131.6 716.47 124.4H750.27C750.67 128.267 752.47 131.4 755.67 133.8C758.87 136.2 762.804 137.4 767.47 137.4C771.737 137.4 775.004 136.6 777.27 135C779.67 133.267 780.87 131.067 780.87 128.4C780.87 125.2 779.204 122.867 775.87 121.4C772.537 119.8 767.137 118.067 759.67 116.2C751.67 114.333 745.004 112.4 739.67 110.4C734.337 108.267 729.737 105 725.87 100.6C722.004 96.0667 720.07 90 720.07 82.4C720.07 76 721.804 70.2 725.27 65C728.87 59.6667 734.07 55.4667 740.87 52.4C747.804 49.3333 756.004 47.8 765.47 47.8C779.47 47.8 790.47 51.2667 798.47 58.2C806.604 65.1333 811.27 74.3333 812.47 85.8H780.87C780.337 81.9333 778.604 78.8667 775.67 76.6C772.87 74.3333 769.137 73.2 764.47 73.2C760.47 73.2 757.404 74 755.27 75.6C753.137 77.0667 752.07 79.1333 752.07 81.8C752.07 85 753.737 87.4 757.07 89C760.537 90.6 765.87 92.2 773.07 93.8C781.337 95.9333 788.07 98.0667 793.27 100.2C798.47 102.2 803.004 105.533 806.87 110.2C810.87 114.733 812.937 120.867 813.07 128.6C813.07 135.133 811.204 141 807.47 146.2C803.87 151.267 798.604 155.267 791.67 158.2C784.87 161.133 776.937 162.6 767.87 162.6Z" opacity=".03"/></svg>