<svg xmlns="http://www.w3.org/2000/svg" width="16" height="16" fill="none" viewBox="0 0 16 16"><rect width="16" height="16" fill="#0E0F0F"/><path fill="#EEE" d="M10.6683 6.85927H9.5822C9.55123 6.68115 9.49411 6.52337 9.41087 6.38591C9.32762 6.24651 9.22404 6.12842 9.10013 6.03161C8.97623 5.93481 8.8349 5.86221 8.67614 5.81381C8.51932 5.76348 8.34992 5.73831 8.16794 5.73831C7.84462 5.73831 7.55809 5.81962 7.30834 5.98225C7.05859 6.14294 6.86305 6.37913 6.72172 6.69083C6.58039 7.0006 6.50973 7.37909 6.50973 7.82631C6.50973 8.28128 6.58039 8.66461 6.72172 8.97631C6.86499 9.28608 7.06053 9.52034 7.30834 9.67909C7.55809 9.83591 7.84365 9.91432 8.16503 9.91432C8.34315 9.91432 8.50964 9.89108 8.66453 9.84462C8.82134 9.79622 8.96171 9.72555 9.08561 9.63262C9.21145 9.5397 9.31697 9.42547 9.40215 9.28995C9.48927 9.15443 9.54929 8.99954 9.5822 8.8253L10.6683 8.83111C10.6277 9.11377 10.5396 9.37901 10.404 9.62682C10.2705 9.87463 10.0953 10.0934 9.87842 10.2831C9.66158 10.4709 9.40796 10.6181 9.11756 10.7245C8.82715 10.8291 8.5048 10.8814 8.15051 10.8814C7.62778 10.8814 7.1612 10.7604 6.75076 10.5184C6.34033 10.2764 6.01701 9.9269 5.78081 9.47C5.54462 9.0131 5.42652 8.4652 5.42652 7.82631C5.42652 7.18549 5.54559 6.63759 5.78372 6.18262C6.02185 5.72572 6.34613 5.37627 6.75657 5.13427C7.16701 4.89226 7.63166 4.77126 8.15051 4.77126C8.48157 4.77126 8.7894 4.81773 9.074 4.91065C9.35859 5.00358 9.61221 5.14007 9.83486 5.32012C10.0575 5.49824 10.2405 5.71701 10.3837 5.97644C10.5289 6.23393 10.6238 6.52821 10.6683 6.85927Z"/></svg>