<svg xmlns="http://www.w3.org/2000/svg" width="145" height="36" fill="none" viewBox="0 0 145 36"><path fill="#3793FF" d="M2.24148 20.2983V17.8438L13.9006 12.4574V15.483L5.61648 19.0369L5.71023 18.875V19.267L5.61648 19.1051L13.9006 22.6591V25.6847L2.24148 20.2983ZM127.491 7.72727L121.866 28.625H119.165L124.79 7.72727H127.491ZM141.776 20.2983L130.116 25.6847V22.6591L138.401 19.1051L138.307 19.267V18.875L138.401 19.0369L130.116 15.483V12.4574L141.776 17.8438V20.2983Z"/><path fill="#fff" d="M22.8936 19.352C22.8936 17.976 23.1736 16.776 23.7336 15.752C24.2936 14.712 25.0696 13.912 26.0616 13.352C27.0536 12.776 28.1896 12.488 29.4696 12.488C31.1176 12.488 32.4776 12.904 33.5496 13.736C34.6376 14.552 35.3656 15.704 35.7336 17.192H32.1096C31.9176 16.616 31.5896 16.168 31.1256 15.848C30.6776 15.512 30.1176 15.344 29.4456 15.344C28.4856 15.344 27.7256 15.696 27.1656 16.4C26.6056 17.088 26.3256 18.072 26.3256 19.352C26.3256 20.616 26.6056 21.6 27.1656 22.304C27.7256 22.992 28.4856 23.336 29.4456 23.336C30.8056 23.336 31.6936 22.728 32.1096 21.512H35.7336C35.3656 22.952 34.6376 24.096 33.5496 24.944C32.4616 25.792 31.1016 26.216 29.4696 26.216C28.1896 26.216 27.0536 25.936 26.0616 25.376C25.0696 24.8 24.2936 24 23.7336 22.976C23.1736 21.936 22.8936 20.728 22.8936 19.352ZM37.3311 19.304C37.3311 17.96 37.5951 16.768 38.1231 15.728C38.6671 14.688 39.3951 13.888 40.3071 13.328C41.2351 12.768 42.2671 12.488 43.4031 12.488C44.3951 12.488 45.2591 12.688 45.9951 13.088C46.7471 13.488 47.3471 13.992 47.7951 14.6V12.704H51.1791V26H47.7951V24.056C47.3631 24.68 46.7631 25.2 45.9951 25.616C45.2431 26.016 44.3711 26.216 43.3791 26.216C42.2591 26.216 41.2351 25.928 40.3071 25.352C39.3951 24.776 38.6671 23.968 38.1231 22.928C37.5951 21.872 37.3311 20.664 37.3311 19.304ZM47.7951 19.352C47.7951 18.536 47.6351 17.84 47.3151 17.264C46.9951 16.672 46.5631 16.224 46.0191 15.92C45.4751 15.6 44.8911 15.44 44.2671 15.44C43.6431 15.44 43.0671 15.592 42.5391 15.896C42.0111 16.2 41.5791 16.648 41.2431 17.24C40.9231 17.816 40.7631 18.504 40.7631 19.304C40.7631 20.104 40.9231 20.808 41.2431 21.416C41.5791 22.008 42.0111 22.464 42.5391 22.784C43.0831 23.104 43.6591 23.264 44.2671 23.264C44.8911 23.264 45.4751 23.112 46.0191 22.808C46.5631 22.488 46.9951 22.04 47.3151 21.464C47.6351 20.872 47.7951 20.168 47.7951 19.352ZM56.1647 11.12C55.5727 11.12 55.0767 10.936 54.6767 10.568C54.2927 10.184 54.1007 9.712 54.1007 9.152C54.1007 8.592 54.2927 8.128 54.6767 7.76C55.0767 7.376 55.5727 7.184 56.1647 7.184C56.7567 7.184 57.2447 7.376 57.6287 7.76C58.0287 8.128 58.2287 8.592 58.2287 9.152C58.2287 9.712 58.0287 10.184 57.6287 10.568C57.2447 10.936 56.7567 11.12 56.1647 11.12ZM57.8207 12.704V26H54.4607V12.704H57.8207ZM68.4844 26L65.7484 21.872L63.3244 26H59.7244L64.0684 19.328L59.6764 12.704H63.4684L66.1804 16.808L68.6284 12.704H72.2284L67.8604 19.328L72.2764 26H68.4844ZM86.4613 19.064C86.4613 19.544 86.4293 19.976 86.3653 20.36H76.6453C76.7253 21.32 77.0613 22.072 77.6533 22.616C78.2453 23.16 78.9733 23.432 79.8373 23.432C81.0853 23.432 81.9733 22.896 82.5013 21.824H86.1253C85.7413 23.104 85.0053 24.16 83.9173 24.992C82.8293 25.808 81.4933 26.216 79.9093 26.216C78.6293 26.216 77.4773 25.936 76.4533 25.376C75.4453 24.8 74.6533 23.992 74.0773 22.952C73.5173 21.912 73.2373 20.712 73.2373 19.352C73.2373 17.976 73.5173 16.768 74.0773 15.728C74.6373 14.688 75.4213 13.888 76.4293 13.328C77.4373 12.768 78.5973 12.488 79.9093 12.488C81.1733 12.488 82.3013 12.76 83.2933 13.304C84.3013 13.848 85.0773 14.624 85.6213 15.632C86.1813 16.624 86.4613 17.768 86.4613 19.064ZM82.9813 18.104C82.9653 17.24 82.6533 16.552 82.0453 16.04C81.4373 15.512 80.6933 15.248 79.8133 15.248C78.9813 15.248 78.2773 15.504 77.7013 16.016C77.1413 16.512 76.7973 17.208 76.6693 18.104H82.9813ZM92.8258 15.464V21.896C92.8258 22.344 92.9298 22.672 93.1378 22.88C93.3618 23.072 93.7298 23.168 94.2418 23.168H95.8018V26H93.6898C90.8578 26 89.4418 24.624 89.4418 21.872V15.464H87.8578V12.704H89.4418V9.416H92.8258V12.704H95.8018V15.464H92.8258ZM97.3545 19.304C97.3545 17.96 97.6185 16.768 98.1465 15.728C98.6905 14.688 99.4185 13.888 100.331 13.328C101.259 12.768 102.291 12.488 103.427 12.488C104.419 12.488 105.283 12.688 106.019 13.088C106.771 13.488 107.371 13.992 107.819 14.6V12.704H111.203V26H107.819V24.056C107.387 24.68 106.787 25.2 106.019 25.616C105.267 26.016 104.395 26.216 103.403 26.216C102.283 26.216 101.259 25.928 100.331 25.352C99.4185 24.776 98.6905 23.968 98.1465 22.928C97.6185 21.872 97.3545 20.664 97.3545 19.304ZM107.819 19.352C107.819 18.536 107.659 17.84 107.339 17.264C107.019 16.672 106.587 16.224 106.043 15.92C105.499 15.6 104.915 15.44 104.291 15.44C103.667 15.44 103.091 15.592 102.562 15.896C102.035 16.2 101.603 16.648 101.267 17.24C100.947 17.816 100.787 18.504 100.787 19.304C100.787 20.104 100.947 20.808 101.267 21.416C101.603 22.008 102.035 22.464 102.562 22.784C103.107 23.104 103.683 23.264 104.291 23.264C104.915 23.264 105.499 23.112 106.043 22.808C106.587 22.488 107.019 22.04 107.339 21.464C107.659 20.872 107.819 20.168 107.819 19.352Z"/></svg>