<svg xmlns="http://www.w3.org/2000/svg" width="1094" height="145" fill="none" viewBox="0 0 1094 145"><path fill="#fff" d="M91.8 2.6V30H34.6V59.6H77.4V86.2H34.6V143H0.400001V2.6H91.8ZM181.375 143L152.175 90H143.975V143H109.775V2.6H167.175C178.242 2.6 187.642 4.53333 195.375 8.39999C203.242 12.2667 209.108 17.6 212.975 24.4C216.842 31.0667 218.775 38.5333 218.775 46.8C218.775 56.1333 216.108 64.4667 210.775 71.8C205.575 79.1333 197.842 84.3333 187.575 87.4L219.975 143H181.375ZM143.975 65.8H165.175C171.442 65.8 176.108 64.2667 179.175 61.2C182.375 58.1333 183.975 53.8 183.975 48.2C183.975 42.8667 182.375 38.6667 179.175 35.6C176.108 32.5333 171.442 31 165.175 31H143.975V65.8ZM306.644 144.4C293.444 144.4 281.31 141.333 270.244 135.2C259.31 129.067 250.577 120.533 244.044 109.6C237.644 98.5333 234.444 86.1333 234.444 72.4C234.444 58.6667 237.644 46.3333 244.044 35.4C250.577 24.4667 259.31 15.9333 270.244 9.8C281.31 3.66666 293.444 0.599998 306.644 0.599998C319.844 0.599998 331.91 3.66666 342.844 9.8C353.91 15.9333 362.577 24.4667 368.844 35.4C375.244 46.3333 378.444 58.6667 378.444 72.4C378.444 86.1333 375.244 98.5333 368.844 109.6C362.444 120.533 353.777 129.067 342.844 135.2C331.91 141.333 319.844 144.4 306.644 144.4ZM306.644 113.2C317.844 113.2 326.777 109.467 333.444 102C340.244 94.5333 343.644 84.6667 343.644 72.4C343.644 60 340.244 50.1333 333.444 42.8C326.777 35.3333 317.844 31.6 306.644 31.6C295.31 31.6 286.244 35.2667 279.444 42.6C272.777 49.9333 269.444 59.8667 269.444 72.4C269.444 84.8 272.777 94.7333 279.444 102.2C286.244 109.533 295.31 113.2 306.644 113.2ZM523.07 143H488.87L431.67 56.4V143H397.47V2.6H431.67L488.87 89.6V2.6H523.07V143ZM648.861 2.6V30H611.661V143H577.461V30H540.261V2.6H648.861ZM742.608 30V58.4H788.408V84.8H742.608V115.6H794.408V143H708.408V2.6H794.408V30H742.608ZM942.211 143H908.011L850.811 56.4V143H816.611V2.6H850.811L908.011 89.6V2.6H942.211V143ZM1019.6 2.6C1034.4 2.6 1047.33 5.53333 1058.4 11.4C1069.47 17.2667 1078 25.5333 1084 36.2C1090.13 46.7333 1093.2 58.9333 1093.2 72.8C1093.2 86.5333 1090.13 98.7333 1084 109.4C1078 120.067 1069.4 128.333 1058.2 134.2C1047.13 140.067 1034.27 143 1019.6 143H967.002V2.6H1019.6ZM1017.4 113.4C1030.33 113.4 1040.4 109.867 1047.6 102.8C1054.8 95.7333 1058.4 85.7333 1058.4 72.8C1058.4 59.8667 1054.8 49.8 1047.6 42.6C1040.4 35.4 1030.33 31.8 1017.4 31.8H1001.2V113.4H1017.4Z" opacity=".03"/></svg>